Coordinates
datacolumns 6
datarows 144
range 0 1.43
inDegrees=yes
Units are S.I. units (second, meters, Newtons, ...)
If the header above contains a line with 'inDegrees', this indicates whether rotational values are in degrees (yes) or radians (no).
endheader
time	foot_tx	hip_flexion_r	knee_angle_r	ankle_angle_r	lumbar
0	0.29618258	60.43979679	-60.21496682	-4.57658904	-11.71809388
0.01	0.29623366	60.45393546	-60.21429281	-4.58521184	-11.86801872
0.02	0.2962665	60.54884349	-60.21627171	-4.59565024	-11.95218173
0.03	0.29631724	60.58828607	-60.20478141	-4.61042854	-12.13297204
0.04	0.29632421	60.7141912	-60.20613279	-4.61890416	-12.24399818
0.05	0.29634596	60.78260487	-60.19503441	-4.62977513	-12.45737539
0.06	0.29632186	60.94315097	-60.19705171	-4.63335996	-12.59757702
0.07	0.29628776	61.04735458	-60.19726548	-4.63058003	-12.84029579
0.08	0.29624602	61.24443956	-60.19792769	-4.6295027	-13.01071952
0.09	0.29616204	61.39842425	-60.2092255	-4.61263465	-13.2699719
0.1	0.29608857	61.62706366	-60.21894101	-4.59786203	-13.4783971
0.11	0.29599501	61.83845132	-60.23195855	-4.57398441	-13.74746443
0.12	0.29588639	62.10999679	-60.2528689	-4.54354767	-13.98551579
0.13	0.29576552	62.39985329	-60.27869289	-4.50557628	-14.24367679
0.14	0.29563102	62.7104598	-60.30913078	-4.4602464	-14.52102033
0.15	0.29549583	63.04458777	-60.3426188	-4.4095126	-14.81562376
0.16	0.2953581	63.4044946	-60.3778387	-4.3542459	-15.12766303
0.17	0.29522099	63.79293087	-60.41246279	-4.29634892	-15.45678646
0.18	0.29508624	64.21376732	-60.44373332	-4.23797456	-15.80170515
0.19	0.29495839	64.71512864	-60.46761829	-4.1851711	-16.10917472
0.2	0.29484839	65.24775715	-60.47904906	-4.13868967	-16.44010782
0.21	0.29474232	65.83885767	-60.47602455	-4.10053595	-16.76652816
0.22	0.29466368	66.4938859	-60.44613061	-4.07986845	-17.08486411
0.23	0.29459484	67.2249794	-60.39362852	-4.0737546	-17.38191564
0.24	0.29454057	68.038023	-60.30994036	-4.08719122	-17.65271303
0.25	0.29449624	68.9393056	-60.19405853	-4.12010146	-17.88902557
0.26	0.29446719	69.92905054	-60.04412275	-4.1726465	-18.08758332
0.27	0.29444328	71.02078731	-59.86070774	-4.24306367	-18.22907651
0.28	0.29442949	72.20795686	-59.64559577	-4.32811321	-18.31466811
0.29	0.29441977	73.49153596	-59.40427441	-4.42191467	-18.33540028
0.3	0.29441474	74.86485584	-59.14316162	-4.51782165	-18.28945906
0.31	0.29441442	76.32086645	-58.87114548	-4.60747667	-18.17449941
0.32	0.2944175	77.842327	-58.59852205	-4.68128419	-17.99972295
0.33	0.29442099	79.41892426	-58.33648688	-4.7294701	-17.76578021
0.34	0.2944404	81.03727724	-58.09536957	-4.74468424	-17.47624933
0.35	0.29446059	82.67297883	-57.88706496	-4.71586111	-17.15013478
0.36	0.2945135	84.3210988	-57.71124523	-4.6444501	-16.78094056
0.37	0.29455319	85.95090332	-57.59502847	-4.50999727	-16.39746509
0.38	0.2946327	87.55441754	-57.52483066	-4.3240408	-15.99759623
0.39	0.29474423	89.12306339	-57.50661353	-4.0829695	-15.58295888
0.4	0.29488801	90.6306972	-57.54667049	-3.78440271	-15.17657954
0.41	0.29507535	92.07818815	-57.64004307	-3.43409164	-14.76864129
0.42	0.2953087	93.45245281	-57.78614794	-3.0347907	-14.36720782
0.43	0.29558871	94.74111216	-57.98495321	-2.58943122	-13.98036971
0.44	0.29591476	95.94433734	-58.23308722	-2.10333562	-13.60061608
0.45	0.29628208	97.04095967	-58.53466431	-1.57691212	-13.24942583
0.46	0.29668591	98.03184981	-58.88523199	-1.01547166	-12.91964359
0.47	0.29711917	98.90970653	-59.28327519	-0.42241072	-12.61594473
0.48	0.29757676	99.67170511	-59.72407311	0.19779006	-12.33672462
0.49	0.29804796	100.3014778	-60.20831494	0.84431788	-12.10206332
0.5	0.29852916	100.8058796	-60.72399031	1.50977565	-11.89740151
0.51	0.29901632	101.1770879	-61.26486636	2.19046525	-11.73110751
0.52	0.29950297	101.4152524	-61.81928113	2.88059869	-11.60095663
0.53	0.29998458	101.4987522	-62.37748794	3.57672946	-11.53370785
0.54	0.30046324	101.5044652	-62.91778769	4.26471345	-11.42947442
0.55	0.30092925	101.3285784	-63.43732532	4.94956208	-11.42255775
0.56	0.30138949	101.0425468	-63.91450093	5.6173632	-11.42240447
0.57	0.30183497	100.6378869	-64.33842913	6.26500612	-11.44022305
0.58	0.30226423	100.1162294	-64.69859246	6.88796101	-11.47666612
0.59	0.30268188	99.48307906	-64.9807058	7.47918094	-11.5294857
0.6	0.30308475	98.74823865	-65.17875549	8.03594095	-11.5885246
0.61	0.30347299	97.91916195	-65.2858926	8.55455374	-11.64800172
0.62	0.30384537	96.99309362	-65.29667102	9.03256635	-11.71587857
0.63	0.30420341	95.97761664	-65.20926512	9.46827108	-11.78616151
0.64	0.30454642	94.87869001	-65.02324184	9.86074492	-11.85507078
0.65	0.30487595	93.69756049	-64.7403133	10.21008416	-11.92446612
0.66	0.30519252	92.43363019	-64.36366377	10.51725224	-11.99834794
0.67	0.30550025	91.09649622	-63.89602526	10.78202678	-12.06784128
0.68	0.30579913	89.68522763	-63.3439693	11.00727996	-12.13671929
0.69	0.30608889	88.20272782	-62.71262007	11.19473717	-12.20399079
0.7	0.30637126	86.64932699	-62.00888022	11.34739745	-12.2717121
0.71	0.30664829	85.03602626	-61.23745751	11.46636086	-12.32876681
0.72	0.30691838	83.36010305	-60.4048644	11.55496124	-12.38106122
0.73	0.30718158	81.62695626	-59.51672031	11.61563498	-12.42456216
0.74	0.3074403	79.8422704	-58.57619126	11.64917833	-12.45482644
0.75	0.30769278	78.01122285	-57.58724312	11.6575	-12.46861582
0.76	0.30793897	76.13674565	-56.55189817	11.64136162	-12.46531593
0.77	0.30817975	74.22561533	-55.47128682	11.60082711	-12.43992901
0.78	0.30841559	72.28092584	-54.34568701	11.53574744	-12.39205019
0.79	0.30864708	70.30680761	-53.17453222	11.44546011	-12.32017873
0.8	0.3088751	68.30708385	-51.95660772	11.32892642	-12.22335391
0.81	0.30910052	66.28454413	-50.69044504	11.18500907	-12.10205523
0.82	0.30932449	64.24244205	-49.37432486	11.01237159	-11.95618843
0.83	0.30954807	62.18388486	-48.00679264	10.8098062	-11.78585131
0.84	0.30977006	60.1058327	-46.58720748	10.57712382	-11.59864518
0.85	0.30999161	58.01280828	-45.11486726	10.3134387	-11.39287971
0.86	0.3102118	55.90492074	-43.59026896	10.0189495	-11.17240996
0.87	0.31042935	53.78005394	-42.01464918	9.6945065	-10.9427827
0.88	0.31064072	51.63907374	-40.39110013	9.34193463	-10.70692043
0.89	0.31084793	49.48867616	-38.72120669	8.96132711	-10.45979055
0.9	0.31104186	47.32065312	-37.0114942	8.55751679	-10.21467587
0.91	0.31122731	45.15257552	-35.26471528	8.13024463	-9.95427056
0.92	0.31139073	42.97309306	-33.49062353	7.68661538	-9.69613528
0.93	0.31153134	40.79723633	-31.69622452	7.22923578	-9.42767709
0.94	0.311644	38.63640374	-29.89121792	6.76270956	-9.14197922
0.95	0.31172349	36.49819319	-28.08622144	6.29225304	-8.83779012
0.96	0.31176491	34.40014172	-26.29363137	5.82320636	-8.50455479
0.97	0.31176073	32.35673012	-24.52701499	5.3617474	-8.13748234
0.98	0.31171309	30.39376617	-22.80219507	4.91381503	-7.72054102
0.99	0.31162076	28.52555283	-21.12934115	4.48282771	-7.25089103
1	0.31147594	26.76292054	-19.52522885	4.07675096	-6.73232846
1.01	0.31128303	25.11976218	-17.99891978	3.69816936	-6.16261001
1.02	0.31104479	23.60644637	-16.55909304	3.34984548	-5.54258459
1.03	0.31076674	22.22156919	-15.21062999	3.03330083	-4.88374694
1.04	0.31045216	20.96249146	-13.95663678	2.74963106	-4.19616936
1.05	0.31011233	19.82617724	-12.79451442	2.49640352	-3.48679655
1.06	0.30974799	18.79827673	-11.72247478	2.27367879	-2.77246799
1.07	0.30937002	17.8775324	-10.73575546	2.07790954	-2.05463085
1.08	0.30898142	17.0478406	-9.82853321	1.90747282	-1.34687111
1.09	0.3085871	16.33957437	-9.00017755	1.76031089	-0.6119499
1.1	0.30819293	15.62445904	-8.22914701	1.63267479	0.01588719
1.11	0.30780644	15.01878387	-7.52473183	1.52274205	0.66882465
1.12	0.30742342	14.45498826	-6.87730181	1.43030469	1.27810076
1.13	0.30705196	13.93389894	-6.28007875	1.3517779	1.85155102
1.14	0.30669722	13.45214373	-5.72722253	1.28446046	2.39208612
1.15	0.30635008	13.04491766	-5.22637637	1.23184884	2.94108908
1.16	0.30602682	12.62415657	-4.75419322	1.18578346	3.41169802
1.17	0.30571563	12.27151351	-4.32495172	1.15069023	3.89564311
1.18	0.30542923	11.90269896	-3.91912639	1.12056442	4.30859967
1.19	0.30515815	11.56259844	-3.54350644	1.0977451	4.70331705
1.2	0.30489891	11.28591431	-3.20188382	1.08299222	5.12175993
1.21	0.30466696	10.97470068	-2.87205916	1.06943487	5.4648681
1.22	0.30444674	10.68421072	-2.563834	1.0607633	5.79554858
1.23	0.30424117	10.41005572	-2.27318575	1.05530522	6.11395787
1.24	0.30404414	10.1827596	-2.00413384	1.05429562	6.45646726
1.25	0.30386701	9.92071924	-1.73845688	1.05230155	6.74078919
1.26	0.30369566	9.67121033	-1.48540389	1.05287213	7.01917614
1.27	0.30353684	9.43106911	-1.24126831	1.05404453	7.29234827
1.28	0.30338106	9.19954321	-1.0073895	1.05751593	7.55994528
1.29	0.30323321	8.97507336	-0.78210888	1.0623251	7.82248821
1.3	0.30309423	8.79060576	-0.57115215	1.06975502	8.11638471
1.31	0.3029694	8.56855715	-0.36249406	1.07750119	8.35715194
1.32	0.30285343	8.35582319	-0.16391213	1.08749881	8.59643035
1.33	0.30275451	8.15301348	0.02184266	1.10074525	8.83250237
1.34	0.30267421	7.9982658	0.18591381	1.11943295	9.10388799
1.35	0.30261477	7.80323549	0.3433947	1.14035659	9.31483928
1.36	0.30257936	7.62196609	0.48389315	1.16571289	9.52189731
1.37	0.30256689	7.49341741	0.60001312	1.19709928	9.76501656
1.38	0.30258489	7.32650414	0.70671487	1.23103501	9.94503677
1.39	0.30262994	7.17679428	0.7939968	1.26991915	10.12050842
1.4	0.30269736	7.07586571	0.85671778	1.31465015	10.32414645
1.41	0.30278911	6.94101331	0.91303798	1.360019	10.46824638
1.42	0.30290411	6.82251572	0.95378333	1.40816732	10.60710231
1.43	0.30303492	6.71568694	0.98224083	1.45782476	10.73625467
